<?xml version="1.0" encoding="utf-8"?>
<!-- Generator: Adobe Illustrator 21.0.0, SVG Export Plug-In . SVG Version: 6.00 Build 0)  -->
<svg version="1.1" id="Layer_1" xmlns="http://www.w3.org/2000/svg" xmlns:xlink="http://www.w3.org/1999/xlink" x="0px" y="0px"
	 viewBox="0 0 32 32" style="enable-background:new 0 0 32 32;" xml:space="preserve">
<g>
	<path d="M27.6,11.2c0,0.6,0.5,1,1.1,1c0.6,0,1.1-0.5,1.1-1c0-0.6-0.5-1.1-1.1-1.1C28.1,10.1,27.6,10.6,27.6,11.2 M29.6,13.3h-1.7
		v6.4h1.7V13.3z M26.6,13.3c-0.1,0-0.3,0-0.4,0c-0.5,0-1.4,0.2-1.8,1v-0.9h-1.7v6.4h1.7v-2.9c0-1.4,0.8-1.8,1.7-1.8
		c0.2,0,0.3,0,0.5,0.1V13.3z M17.9,18.6c-0.6,0-0.8-0.4-0.8-0.7c0-0.5,0.4-0.7,0.8-0.8l1.4-0.2v0.3C19.3,18.2,18.6,18.6,17.9,18.6
		 M15.3,17.9c0,1,0.8,1.9,2.2,1.9c0.9,0,1.6-0.4,1.9-0.9c0,0.2,0,0.6,0.1,0.8H21c0-0.2-0.1-0.7-0.1-1v-3.1c0-1.3-0.8-2.4-2.8-2.4
		c-1.7,0-2.6,1.1-2.7,2.1l1.5,0.3c0.1-0.6,0.5-1,1.2-1c0.7,0,1.1,0.4,1.1,0.8c0,0.2-0.1,0.4-0.5,0.5L17.2,16
		C16.2,16.2,15.3,16.8,15.3,17.9 M10.9,18.6c-0.6,0-0.8-0.4-0.8-0.7c0-0.5,0.4-0.7,0.8-0.8l1.4-0.2v0.3
		C12.3,18.2,11.6,18.6,10.9,18.6 M8.3,17.9c0,1,0.8,1.9,2.2,1.9c0.9,0,1.6-0.4,1.9-0.9c0,0.2,0,0.6,0.1,0.8h1.6c0-0.2-0.1-0.7-0.1-1
		v-3.1c0-1.3-0.8-2.4-2.8-2.4c-1.7,0-2.6,1.1-2.7,2.1l1.5,0.3c0.1-0.6,0.5-1,1.2-1c0.7,0,1.1,0.4,1.1,0.8c0,0.2-0.1,0.4-0.5,0.5
		L10.3,16C9.2,16.2,8.3,16.8,8.3,17.9 M2.3,17.9c0.1,0.7,0.7,2,2.7,2c1.7,0,2.5-1.1,2.5-2.1c0-0.9-0.6-1.7-1.9-2l-0.9-0.2
		C4.2,15.5,4,15.4,4,15c0-0.4,0.4-0.6,0.8-0.6c0.7,0,1,0.5,1.1,0.9l1.4-0.3c-0.1-0.7-0.7-1.8-2.5-1.8c-1.4,0-2.4,0.9-2.4,2.1
		c0,0.9,0.6,1.6,1.8,1.9l0.8,0.2c0.5,0.1,0.7,0.3,0.7,0.6c0,0.3-0.3,0.6-0.8,0.6c-0.8,0-1.1-0.5-1.2-1L2.3,17.9z"/>
</g>
</svg>
