<svg style="position: absolute; width: 0; height: 0; overflow: hidden;" version="1.1" xmlns="http://www.w3.org/2000/svg">
<defs>
<symbol id="icon-castrol" viewBox="0 0 32 32">
<title>castrol</title>
<path d="M4.743 16.412h0.178c0.060 0 0.112-0.044 0.117-0.097l0.001-0.011c0.004-0.055-0.039-0.097-0.099-0.097h-0.135l0.056-0.174h0.185c0.060 0 0.113-0.043 0.117-0.097l0.001-0.011c0.005-0.053-0.036-0.099-0.096-0.099l2.63-0.001c0.122 0.564 0.023 0.983 0.023 0.983h-2.914c0.059 0 0.113-0.044 0.118-0.098l0.001-0.011c0.005-0.055-0.039-0.097-0.099-0.097h-0.146l0.061-0.188 0.002-0.001zM5.099 16.452c-0.033 0-0.063 0.022-0.066 0.051l-0.001 0.006c-0.003 0.029 0.023 0.051 0.056 0.051h0.169c0.034 0 0.063-0.022 0.066-0.051l0.001-0.006c0.003-0.029-0.023-0.051-0.056-0.051h-0.169zM5.218 16.059c-0.033 0-0.063 0.022-0.066 0.050l-0.001 0.006c-0.003 0.029 0.023 0.051 0.056 0.051h0.168c0.033 0 0.063-0.022 0.066-0.051l0.001-0.006c0.003-0.028-0.023-0.050-0.056-0.050h-0.168zM5.496 16.266c-0.023 0-0.042 0.018-0.044 0.039l-0.001 0.005c-0.002 0.021 0.014 0.039 0.037 0.039h0.112c0.022 0 0.042-0.017 0.044-0.039l0.001-0.005c0.002-0.021-0.014-0.039-0.037-0.039h-0.112zM5.391 16.654c-0.023 0-0.041 0.017-0.044 0.039l-0.001 0.005c-0.002 0.021 0.014 0.038 0.037 0.038h0.111c0.023 0 0.041-0.017 0.044-0.038l0.001-0.005c0.002-0.022-0.014-0.039-0.036-0.039h-0.112zM5.608 15.889c-0.023 0-0.041 0.017-0.044 0.038v0.005c-0.002 0.022 0.014 0.039 0.037 0.039h0.111c0.023 0 0.042-0.017 0.044-0.039v-0.005c0.002-0.021-0.014-0.038-0.037-0.038h-0.111zM5.749 16.473c-0.023 0-0.042 0.018-0.044 0.039v0.005c-0.002 0.021 0.014 0.039 0.036 0.039h0.112c0.023 0 0.042-0.018 0.044-0.039l0.001-0.005c0.002-0.021-0.014-0.039-0.037-0.039h-0.112zM5.857 16.076c-0.023 0-0.041 0.018-0.044 0.038v0.006c-0.002 0.021 0.014 0.039 0.036 0.039h0.111c0.023 0 0.042-0.017 0.044-0.039l0.001-0.006c0.002-0.020-0.014-0.038-0.037-0.038h-0.111zM6.102 16.271c-0.023 0-0.041 0.017-0.043 0.039l-0.001 0.005c-0.002 0.021 0.014 0.039 0.037 0.039h0.112c0.022 0 0.041-0.018 0.044-0.039l0.001-0.005c0.002-0.021-0.014-0.039-0.037-0.039h-0.113zM5.996 16.659c-0.023 0-0.042 0.018-0.044 0.039v0.005c-0.002 0.021 0.014 0.039 0.036 0.039h0.112c0.023 0 0.041-0.018 0.044-0.039l0.001-0.005c0.002-0.021-0.015-0.039-0.037-0.039h-0.112zM6.215 15.894c-0.023 0-0.043 0.017-0.044 0.039v0.006c-0.002 0.021 0.014 0.038 0.037 0.038h0.111c0.023 0 0.041-0.017 0.044-0.038l0.001-0.006c0.002-0.021-0.014-0.039-0.037-0.039h-0.112zM4.932 15.819h-0.164c-0.060 0-0.112 0.044-0.118 0.097l-0.001 0.011c-0.006 0.055 0.039 0.098 0.099 0.098h0.114l0.071-0.207h-0.001zM4.683 16.6h-0.153c-0.059 0-0.112 0.044-0.117 0.097l-0.001 0.011c-0.005 0.055 0.039 0.098 0.099 0.098h0.114l0.059-0.207h-0.001zM4.806 16.205h-0.165c-0.059 0-0.112 0.044-0.118 0.097l-0.001 0.011c-0.006 0.054 0.039 0.097 0.099 0.097h0.121l0.064-0.207 0 0.001zM3.496 16.76c0.023 0 0.044-0.023 0.046-0.053l0.001-0.006c0.002-0.029-0.016-0.052-0.039-0.052h-0.118c-0.023 0-0.044 0.023-0.047 0.052l-0.001 0.006c-0.002 0.030 0.015 0.053 0.039 0.053h0.119zM3.72 15.973c0.023 0 0.044-0.023 0.047-0.053l0.001-0.006c0.002-0.029-0.015-0.053-0.039-0.053h-0.118c-0.023 0-0.044 0.023-0.047 0.053v0.006c-0.003 0.030 0.014 0.053 0.039 0.053h0.117zM3.607 16.363c0.023 0 0.044-0.023 0.047-0.052v-0.006c0.002-0.029-0.015-0.053-0.039-0.053h-0.118c-0.023 0-0.044 0.024-0.047 0.053v0.006c-0.002 0.029 0.015 0.052 0.039 0.052h0.118zM3.814 16.565c0.023 0 0.044-0.023 0.047-0.052l0.001-0.006c0.002-0.029-0.015-0.053-0.039-0.053h-0.118c-0.023 0-0.044 0.024-0.047 0.053v0.006c-0.002 0.029 0.015 0.052 0.039 0.052h0.117zM3.925 16.168c0.023 0 0.044-0.023 0.047-0.052l0.001-0.006c0.002-0.029-0.015-0.052-0.039-0.052h-0.118c-0.023 0-0.044 0.023-0.047 0.052v0.006c-0.002 0.029 0.015 0.052 0.039 0.052h0.117zM4.028 16.761c0.023 0 0.044-0.023 0.047-0.052l0.001-0.006c0.002-0.029-0.015-0.052-0.039-0.052h-0.118c-0.023 0-0.044 0.023-0.047 0.052v0.006c-0.002 0.029 0.015 0.052 0.039 0.052h0.117zM4.251 15.974c0.023 0 0.044-0.024 0.047-0.053l0.001-0.006c0.002-0.029-0.015-0.052-0.039-0.052h-0.118c-0.023 0-0.044 0.023-0.047 0.052l-0.001 0.006c-0.002 0.029 0.016 0.053 0.039 0.053h0.118zM4.14 16.365c0.023 0 0.044-0.023 0.047-0.053v-0.006c0.002-0.029-0.015-0.053-0.039-0.053h-0.118c-0.023 0-0.044 0.023-0.047 0.053v0.006c-0.002 0.030 0.015 0.053 0.039 0.053h0.118zM4.386 16.576c0.035 0 0.067-0.030 0.071-0.067l0.001-0.008c0.003-0.037-0.023-0.069-0.060-0.069h-0.179c-0.035 0-0.067 0.032-0.070 0.069l-0.001 0.008c-0.003 0.037 0.023 0.067 0.060 0.067h0.179zM4.499 16.181c0.035 0 0.067-0.031 0.071-0.067l0.001-0.008c0.003-0.037-0.023-0.068-0.060-0.068h-0.179c-0.035 0-0.067 0.031-0.070 0.068l-0.001 0.008c-0.003 0.037 0.023 0.067 0.060 0.067h0.179zM14.378 15.161c0.24 0.305 0.161 0.806 0.066 1.158l-0.62 2.277c-0.259 0.116-0.574 0.135-0.87 0.188-0.574 0.058-1.213 0.034-1.533-0.51-0.165-0.381-0.099-0.893 0.146-1.216 0.49-0.598 1.199-0.694 1.895-0.81 0.057-0.184 0.127-0.405 0.057-0.604-0.211-0.28-0.63-0.144-0.921-0.116-0.165 0.029-0.309 0.087-0.465 0.13 0.007 0.005 0.146-0.635 0.146-0.638 0.615-0.232 1.571-0.396 2.101 0.139l-0.001 0.001zM13.283 16.901c-0.301 0.048-0.672 0.147-0.846 0.471-0.090 0.197-0.132 0.497 0.032 0.67 0.122 0.121 0.329 0.057 0.485 0.057l0.328-1.199h0.001zM23.949 15.311c0.291 0.613 0.041 1.338-0.137 1.921-0.208 0.589-0.622 1.264-1.251 1.472-0.441 0.125-0.997 0.144-1.369-0.149-0.503-0.472-0.316-1.328-0.136-1.878 0.253-0.781 0.86-1.751 1.749-1.852 0.451-0.010 0.912 0.048 1.143 0.487l0.001-0.001zM22.877 15.495c-0.090 0.024-0.17 0.081-0.241 0.165-0.422 0.685-0.719 1.613-0.742 2.282 0.009 0.106 0.066 0.172 0.17 0.173 0.152 0.002 0.216-0.072 0.306-0.164 0.392-0.647 0.692-1.487 0.72-2.307 0.005-0.133-0.113-0.158-0.211-0.149l-0.001 0zM21.715 14.915l-0.376 0.593c-0.232-0.024-0.48-0.014-0.687 0.057l-0.847 3.137h-0.969l0.959-3.6c0.485-0.231 1.040-0.333 1.637-0.27l0.283 0.082v0.001z"></path>
<path d="M17.163 14.94c0.006 0.005-0.168 0.588-0.17 0.588-0.371-0.030-0.912-0.131-1.138 0.27-0.15 0.607 0.706 0.815 0.799 1.351 0.113 0.468 0 0.961-0.381 1.265-0.536 0.491-1.425 0.39-2.079 0.221 0.004 0.002 0.161-0.618 0.16-0.618 0.39 0.078 1.063 0.251 1.341-0.192 0.188-0.542-0.48-0.743-0.71-1.149-0.254-0.337-0.203-0.858 0-1.206 0.484-0.695 1.434-0.777 2.177-0.53v0zM3.463 14.177c-0.221 0.743-0.419 1.496-0.631 2.244-0.040 0.202-0.061 0.444 0.089 0.593 0.113 0.117 0.245 0.184 0.404 0.189h4.301c-0.208 0.829-0.902 1.501-1.657 1.789-0.851 0.323-1.863 0.153-2.54-0.403-0.837-0.69-1.231-1.71-0.997-2.8 0.127-0.613 0.484-1.216 1.030-1.612l0.001-0.001zM25.087 17.661c0.005 0.111-0.061 0.242 0.014 0.339 0.15 0.154 0.395 0.086 0.607 0.1 0 0.009-0.124 0.604-0.124 0.604s-0.357-0.008-0.543-0.001c-0.395 0.013-0.78-0.001-0.946-0.414-0.108-0.652 0.207-1.235 0.339-1.843 0.193-0.777 0.631-2.351 0.631-2.351l1.029-0.207-1.006 3.773-0.001 0.001zM19.026 13.888l-0.259 1.053h0.692l-0.151 0.601h-0.695c0 0-0.27 0.954-0.395 1.415-0.096 0.353-0.211 0.778-0.216 1.052 0.155 0.17 0.423 0.063 0.631 0.092-0.014 0.198-0.095 0.395-0.146 0.593-0.503-0.044-1.194 0.193-1.477-0.337-0.085-0.169-0.033-0.392 0-0.568 0.183-0.734 0.597-2.246 0.597-2.246h-0.339l0.145-0.601h0.353c0.089-0.295 0.259-0.893 0.259-0.893l1.001-0.159zM11.693 14.293c0.202 0.444 0.006 0.988-0.111 1.408l-1.031 0.176c0.051-0.396 0.273-0.781 0.202-1.216-0.023-0.053-0.076-0.102-0.132-0.116-0.282-0.033-0.466 0.26-0.588 0.463-0.348 0.757-0.612 1.592-0.734 2.448-0.004 0.237-0.075 0.568 0.179 0.669 0.127 0.020 0.221-0.024 0.306-0.106 0.225-0.29 0.461-1.019 0.461-1.019 0.357-0.053 0.7-0.125 1.054-0.197-0.207 0.787-0.503 1.881-1.467 2.041-0.489 0.057-1.016 0.044-1.345-0.338-0.418-0.531-0.263-1.371-0.136-1.993 0.287-1.056 0.847-2.539 2.145-2.674 0.46-0.039 0.959 0.005 1.199 0.454l-0.001-0zM7.576 15.408h-3.878l0.428-1.607c0.937-0.355 1.966-0.147 2.672 0.478 0.565 0.5 0.76 1.072 0.778 1.129v0zM28.348 19.882h-23.317c-1.258-0.057-2.494-0.725-3.058-1.955-0.55-1.12-0.429-2.732 0.385-3.707 0.795-0.969 1.886-1.303 3.081-1.332h24.808l-1.898 6.993-0.001 0.001zM30.018 13.052h-24.435c-1.321 0.014-2.623 0.376-3.339 1.607-0.625 0.994-0.588 2.566 0.057 3.534 0.644 1.061 1.735 1.49 2.863 1.524h23.046l1.806-6.665h0.001z"></path>
</symbol>
<symbol id="icon-ee" viewBox="0 0 32 32">
<title>ee</title>
<path d="M16.188 4.82c-3.58 0-6.355 2.908-6.355 6.309 0 3.013 1.967 4.635 1.967 4.635 0.195 0.171 0.146 0.26 0.007 0.4 0 0-1.974 1.795-1.974 4.571 0 3.806 3.045 6.375 6.355 6.375 3.701 0 6.332-3.008 6.332-6.331 0-2.86-1.895-4.547-1.895-4.547-0.267-0.257-0.266-0.3 0-0.535 0 0 1.895-1.593 1.895-4.57 0-3.364-2.703-6.308-6.332-6.308zM14.774 8.093c0.181 0 0.34 0.093 0.432 0.234 0.092-0.141 0.252-0.234 0.433-0.234 0.208 0 0.387 0.123 0.469 0.3 0.082-0.177 0.261-0.3 0.468-0.3s0.387 0.123 0.469 0.299c0.082-0.177 0.262-0.299 0.469-0.299 0.285 0 0.516 0.231 0.516 0.516s-0.231 0.517-0.516 0.517c-0.207 0-0.387-0.123-0.469-0.299-0.082 0.176-0.262 0.299-0.469 0.299s-0.386-0.123-0.468-0.3c-0.082 0.177-0.261 0.3-0.469 0.3-0.181 0-0.34-0.093-0.433-0.234-0.037 0.056-0.083 0.105-0.139 0.143 0.135 0.093 0.223 0.249 0.223 0.425 0 0.175-0.087 0.33-0.221 0.424 0.133 0.093 0.221 0.248 0.221 0.424s-0.087 0.33-0.221 0.424c0.041 0.029 0.077 0.063 0.108 0.102 0.095-0.119 0.24-0.195 0.404-0.195 0.189 0 0.355 0.102 0.445 0.255 0.090-0.152 0.256-0.255 0.445-0.255 0.187 0 0.351 0.1 0.442 0.249 0.090-0.149 0.255-0.249 0.442-0.249 0.286 0 0.517 0.231 0.517 0.516s-0.232 0.517-0.517 0.517c-0.187 0-0.351-0.099-0.442-0.249-0.090 0.149-0.255 0.249-0.442 0.249-0.19 0-0.355-0.102-0.445-0.254-0.090 0.152-0.255 0.254-0.445 0.254-0.163 0-0.309-0.076-0.404-0.195-0.032 0.040-0.069 0.074-0.111 0.103 0.135 0.093 0.223 0.249 0.223 0.425s-0.088 0.332-0.223 0.426c0.135 0.093 0.223 0.249 0.223 0.425s-0.088 0.332-0.223 0.425c0.055 0.038 0.101 0.085 0.138 0.141 0.092-0.142 0.252-0.236 0.433-0.236 0.208 0 0.387 0.123 0.469 0.3 0.082-0.177 0.261-0.3 0.468-0.3s0.387 0.123 0.469 0.299c0.082-0.177 0.262-0.299 0.469-0.299 0.285 0 0.516 0.232 0.516 0.517s-0.231 0.516-0.516 0.516c-0.207 0-0.387-0.122-0.469-0.299-0.082 0.177-0.262 0.299-0.469 0.299s-0.386-0.123-0.468-0.3c-0.082 0.177-0.261 0.3-0.469 0.3-0.18 0-0.339-0.093-0.431-0.233-0.092 0.142-0.252 0.236-0.433 0.236-0.285 0-0.516-0.231-0.516-0.516 0-0.176 0.088-0.332 0.223-0.425-0.135-0.093-0.223-0.249-0.223-0.425s0.088-0.332 0.223-0.425c-0.135-0.093-0.223-0.249-0.223-0.426s0.088-0.332 0.223-0.425c-0.135-0.093-0.223-0.249-0.223-0.425 0-0.175 0.087-0.33 0.221-0.424-0.133-0.093-0.221-0.248-0.221-0.424s0.087-0.33 0.221-0.424c-0.133-0.093-0.221-0.248-0.221-0.424 0-0.177 0.088-0.332 0.223-0.425-0.135-0.093-0.223-0.249-0.223-0.426 0-0.285 0.231-0.516 0.516-0.516zM14.774 17.714c0.181 0 0.34 0.093 0.432 0.234 0.092-0.141 0.252-0.234 0.433-0.234 0.208 0 0.387 0.122 0.469 0.3 0.082-0.177 0.261-0.3 0.468-0.3s0.387 0.122 0.469 0.299c0.082-0.177 0.262-0.299 0.469-0.299 0.285 0 0.516 0.232 0.516 0.517s-0.231 0.516-0.516 0.516c-0.207 0-0.387-0.122-0.469-0.299-0.082 0.177-0.262 0.299-0.469 0.299s-0.386-0.123-0.468-0.3c-0.082 0.177-0.261 0.3-0.469 0.3-0.181 0-0.34-0.093-0.433-0.234-0.037 0.056-0.083 0.105-0.138 0.143 0.135 0.093 0.223 0.249 0.223 0.425s-0.088 0.33-0.222 0.424c0.134 0.093 0.222 0.248 0.222 0.424s-0.088 0.33-0.222 0.424c0.041 0.029 0.078 0.063 0.109 0.102 0.095-0.119 0.24-0.195 0.404-0.195 0.189 0 0.355 0.102 0.445 0.254 0.090-0.152 0.256-0.254 0.445-0.254 0.187 0 0.351 0.099 0.442 0.249 0.090-0.149 0.255-0.249 0.442-0.249 0.286 0 0.517 0.232 0.517 0.517s-0.232 0.516-0.517 0.516c-0.187 0-0.351-0.099-0.442-0.248-0.090 0.149-0.255 0.248-0.442 0.248-0.19 0-0.355-0.102-0.445-0.254-0.090 0.152-0.255 0.254-0.445 0.254-0.163 0-0.309-0.076-0.404-0.195-0.032 0.040-0.069 0.075-0.111 0.104 0.135 0.093 0.223 0.249 0.223 0.425s-0.088 0.332-0.223 0.425c0.135 0.093 0.223 0.249 0.223 0.425s-0.088 0.332-0.223 0.425c0.055 0.038 0.101 0.086 0.138 0.142 0.092-0.142 0.252-0.236 0.433-0.236 0.208 0 0.387 0.122 0.469 0.3 0.082-0.177 0.261-0.3 0.468-0.3s0.387 0.122 0.469 0.299c0.082-0.177 0.262-0.299 0.469-0.299 0.285 0 0.516 0.231 0.516 0.516s-0.231 0.517-0.516 0.517c-0.207 0-0.387-0.122-0.469-0.299-0.082 0.176-0.262 0.299-0.469 0.299s-0.386-0.123-0.468-0.3c-0.082 0.177-0.261 0.3-0.469 0.3-0.18 0-0.339-0.093-0.431-0.233-0.092 0.142-0.252 0.235-0.433 0.235-0.285 0-0.516-0.232-0.516-0.517 0-0.177 0.088-0.332 0.223-0.425-0.135-0.093-0.223-0.249-0.223-0.425s0.088-0.332 0.223-0.425c-0.135-0.093-0.223-0.249-0.223-0.425s0.088-0.332 0.223-0.425c-0.135-0.093-0.223-0.249-0.223-0.425s0.088-0.331 0.222-0.424c-0.133-0.094-0.222-0.248-0.222-0.424s0.088-0.33 0.222-0.424c-0.133-0.093-0.222-0.248-0.222-0.424s0.088-0.332 0.223-0.425c-0.135-0.093-0.223-0.249-0.223-0.425 0-0.286 0.232-0.518 0.517-0.518z"></path>
</symbol>
<symbol id="icon-pepsico" viewBox="0 0 32 32">
<title>pepsico</title>
<path d="M25.788 16.45c0 1.985 1.488 2.050 2.291 2.050s2.291-0.064 2.291-2.050c0-1.985-1.488-2.050-2.291-2.050s-2.291 0.064-2.291 2.050zM27.196 16.45c0-0.778 0.343-1.084 0.883-1.084s0.882 0.306 0.882 1.084-0.343 1.084-0.882 1.084c-0.54 0-0.883-0.306-0.883-1.084z"></path>
<path d="M25.464 16.873c-0.085 0.504-0.235 0.912-0.563 1.191-0.324 0.279-0.831 0.435-1.639 0.435-0.803 0-2.291-0.064-2.291-2.050s1.488-2.050 2.291-2.050c0.798 0 2.028 0.118 2.202 1.636h-1.493c-0.038-0.274-0.197-0.671-0.709-0.671-0.54 0-0.883 0.306-0.883 1.084s0.333 1.084 0.817 1.084c0.418 0 0.667-0.199 0.775-0.66h1.493z"></path>
<path d="M19.234 18.365h1.324v-3.831h-1.324z"></path>
<path d="M15.473 16.739c-0.648-0.113-0.916-0.542-0.916-1.078 0-0.993 0.85-1.261 1.939-1.261 1.493 0 2.108 0.445 2.155 1.255h-1.54c0-0.156-0.080-0.252-0.202-0.306-0.117-0.059-0.268-0.080-0.413-0.080-0.394 0-0.531 0.113-0.531 0.274 0 0.107 0.042 0.177 0.174 0.199l1.582 0.268c0.667 0.113 1.080 0.467 1.080 1.116 0 0.934-0.667 1.374-2.155 1.374-1.019 0-2.131-0.161-2.136-1.288h1.596c0.005 0.129 0.047 0.214 0.141 0.274 0.099 0.054 0.244 0.081 0.451 0.081 0.413 0 0.526-0.129 0.526-0.311 0-0.113-0.061-0.225-0.24-0.258l-1.512-0.258z"></path>
<path d="M10.173 18.365h1.324v-1.191h1.418c0.939 0 1.277-0.569 1.277-1.304 0-0.853-0.347-1.336-1.286-1.336h-2.732v3.831zM11.497 15.435h0.854c0.333 0 0.46 0.118 0.46 0.408 0 0.279-0.127 0.397-0.46 0.397h-0.854v-0.805z"></path>
<path d="M6.055 14.534h3.563v0.934h-2.239v0.515h2.080v0.934h-2.080v0.515h2.239v0.934h-3.563z"></path>
<path d="M1.6 18.365v-3.831h2.732c0.939 0 1.286 0.483 1.286 1.336 0 0.735-0.338 1.304-1.277 1.304h-1.418v1.191h-1.324zM2.924 15.435v0.805h0.855c0.333 0 0.46-0.118 0.46-0.397 0-0.29-0.127-0.408-0.46-0.408h-0.855z"></path>
</symbol>
<symbol id="icon-samsung" viewBox="0 0 32 32">
<title>samsung</title>
<path d="M26.611 17.083c2.429-1.157 3.766-2.474 3.569-3.565-0.416-2.292-7.55-2.662-14.914-1.389-3.369 0.583-6.592 1.459-8.774 2.326 0.115-0.007 0.197-0.002 0.197-0.002 0.943 0.024 0.885 0.596 0.885 0.596l0.002 0.35h-0.754v-0.237c0-0.168-0.208-0.18-0.208-0.18-0.161 0-0.199 0.107-0.199 0.107-0.088 0.162 0.063 0.302 0.063 0.302 0.078 0.085 0.468 0.261 0.468 0.261 0.127 0.047 0.331 0.172 0.331 0.172 0.382 0.224 0.347 0.65 0.347 0.65v0.28c-0.046 0.694-1.029 0.676-1.029 0.676-1.029 0-1.007-0.658-1.007-0.658v-0.344h0.801v0.237c0 0.202 0.2 0.21 0.2 0.21 0.219 0.010 0.236-0.198 0.236-0.198 0.031-0.199-0.195-0.325-0.195-0.325-0.224-0.112-0.597-0.309-0.597-0.309-0.186-0.116-0.259-0.223-0.259-0.223-0.132-0.162-0.124-0.416-0.124-0.416v-0.218c0-0.301 0.084-0.39 0.084-0.39 0.004-0.006 0.006-0.012 0.011-0.018-2.689 1.211-4.335 2.614-4.127 3.768 0.423 2.341 7.151 2.647 15.065 1.459 3.644-0.546 6.815-1.551 9.215-2.595-0.016 0.001-0.035 0.001-0.053 0.001 0 0-0.97 0.077-0.994-0.684v-1.474c0 0-0.122-0.812 0.966-0.812 0 0 0.707-0.021 0.894 0.386 0 0 0.091 0.109 0.066 0.561h-0.754v-0.232c0 0-0.002-0.187-0.198-0.187 0 0-0.204 0.008-0.204 0.164v1.524c0 0-0.009 0.205 0.223 0.205 0 0 0.189-0.006 0.189-0.22v-0.439h-0.207v-0.411h0.969v0.865c0 0-0.002 0.183-0.081 0.289 0-0.002-0.079 0.116-0.108 0.139v-0.003l0.005-0.002zM23.852 17.33h-0.887l-0.793-1.7h-0.032l0.045 1.7h-0.746v-2.78h0.915l0.765 1.687h0.032l-0.052-1.687h0.754v2.78h-0.001zM19.185 16.639c0 0.236 0.231 0.226 0.231 0.226 0.219 0 0.206-0.23 0.206-0.23v-2.1h0.799v2.122c0 0.765-0.993 0.754-0.993 0.754-1.144 0-1.060-0.79-1.060-0.79v-2.086h0.817l0.001 2.103h-0.001v0.002zM16.675 15.398v-0.238c0-0.168-0.208-0.179-0.208-0.179-0.161 0-0.198 0.106-0.198 0.106-0.089 0.164 0.063 0.302 0.063 0.302 0.078 0.085 0.469 0.261 0.469 0.261 0.127 0.048 0.33 0.172 0.33 0.172 0.382 0.224 0.347 0.65 0.347 0.65v0.28c-0.047 0.694-1.028 0.676-1.028 0.676-1.029 0-1.008-0.658-1.008-0.658v-0.344h0.802v0.237c0 0.202 0.199 0.21 0.199 0.21 0.22 0.009 0.238-0.197 0.238-0.197 0.031-0.2-0.197-0.327-0.197-0.327-0.223-0.111-0.596-0.308-0.596-0.308-0.184-0.117-0.259-0.225-0.259-0.225-0.132-0.161-0.124-0.414-0.124-0.414v-0.218c0-0.302 0.084-0.39 0.084-0.39 0.213-0.389 0.955-0.342 0.955-0.342 0.942 0.026 0.884 0.597 0.884 0.597l0.002 0.35-0.753-0.001-0.001-0.002zM12.732 14.549l0.24 1.523h0.059l0.252-1.523h1.243l0.081 2.78h-0.748l-0.018-2.096h-0.052l-0.39 2.096h-0.781l-0.394-2.096h-0.058l-0.008 2.096h-0.743l0.062-2.781 1.256 0.001zM9.814 17.327l-0.292-2.157h-0.066l-0.293 2.157h-0.8l0.494-2.781h1.263l0.494 2.781h-0.801z"></path>
</symbol>
<symbol id="icon-city" viewBox="0 0 32 32">
<title>city</title>
<path d="M14.4 16h1.6v1.6h-1.6v-1.6z"></path>
<path d="M17.6 16h1.6v1.6h-1.6v-1.6z"></path>
<path d="M20.8 16h1.6v1.6h-1.6v-1.6z"></path>
<path d="M24 16h1.6v1.6h-1.6v-1.6z"></path>
<path d="M14.4 20.8h1.6v1.6h-1.6v-1.6z"></path>
<path d="M17.6 20.8h1.6v1.6h-1.6v-1.6z"></path>
<path d="M20.8 20.8h1.6v1.6h-1.6v-1.6z"></path>
<path d="M24 20.8h1.6v1.6h-1.6v-1.6z"></path>
<path d="M14.4 25.6h1.6v1.6h-1.6v-1.6z"></path>
<path d="M17.6 25.6h1.6v1.6h-1.6v-1.6z"></path>
<path d="M20.8 25.6h1.6v1.6h-1.6v-1.6z"></path>
<path d="M24 25.6h1.6v1.6h-1.6v-1.6z"></path>
<path d="M28 11.2h-0.8v-4c0-0.212-0.084-0.416-0.234-0.566l-2.966-2.966v-2.869c0-0.442-0.358-0.8-0.8-0.8s-0.8 0.358-0.8 0.8v2.869l-2.966 2.966c-0.15 0.15-0.234 0.354-0.234 0.566v0.8h-3.2v-4c0-0.442-0.358-0.8-0.8-0.8h-12.8c-0.442 0-0.8 0.358-0.8 0.8v27.2c0 0.442 0.358 0.8 0.8 0.8h25.6c0.442 0 0.8-0.358 0.8-0.8v-19.2c0-0.442-0.358-0.8-0.8-0.8zM20.8 7.531l2.4-2.4 2.4 2.4v3.669h-1.6v-2.4c0-0.442-0.358-0.8-0.8-0.8h-2.4v-0.469zM22.4 9.6v1.6h-6.4v-1.6h6.4zM11.2 12v18.4h-8v-25.6h11.2v6.4h-2.4c-0.442 0-0.8 0.358-0.8 0.8zM27.2 30.4h-14.4v-17.6h14.4v17.6z"></path>
<path d="M11.2 6.4h1.6v3.2h-1.6v-3.2z"></path>
<path d="M8 6.4h1.6v3.2h-1.6v-3.2z"></path>
<path d="M4.8 6.4h1.6v3.2h-1.6v-3.2z"></path>
<path d="M4.8 11.2h1.6v3.2h-1.6v-3.2z"></path>
<path d="M8 11.2h1.6v3.2h-1.6v-3.2z"></path>
<path d="M4.8 16h1.6v3.2h-1.6v-3.2z"></path>
<path d="M8 16h1.6v3.2h-1.6v-3.2z"></path>
<path d="M4.8 20.8h1.6v3.2h-1.6v-3.2z"></path>
<path d="M8 20.8h1.6v3.2h-1.6v-3.2z"></path>
<path d="M4.8 25.6h1.6v3.2h-1.6v-3.2z"></path>
<path d="M8 25.6h1.6v3.2h-1.6v-3.2z"></path>
</symbol>
<symbol id="icon-pencil3" viewBox="0 0 32 32">
<title>pencil3</title>
<path d="M31.2 9.6c0-4.411-3.589-8-8-8-1.205 0-2.364 0.262-3.445 0.778-0.084 0.040-0.158 0.094-0.22 0.157l-0-0.001-16.9 16.9c-0.122 0.122-0.202 0.281-0.226 0.453l-1.6 11.2c-0.036 0.249 0.048 0.501 0.226 0.679 0.151 0.151 0.355 0.234 0.566 0.234 0.038 0 0.075-0.003 0.113-0.008l11.2-1.6c0.171-0.024 0.33-0.104 0.453-0.226l16.888-16.887c0-0 0.001-0.001 0.001-0.001l0.011-0.011-0-0c0.063-0.063 0.116-0.136 0.156-0.221 0.516-1.081 0.778-2.24 0.778-3.445zM29.6 9.6c0 0.921-0.191 1.806-0.566 2.635l-1.84 1.84c-0.168-4.595-3.874-8.301-8.469-8.469l1.84-1.84c0.829-0.376 1.715-0.566 2.635-0.566 3.529 0 6.4 2.871 6.4 6.4zM3.208 25.6l0.677-4.743c0.302-0.038 0.608-0.058 0.914-0.058 3.97 0 7.2 3.23 7.2 7.2 0 0.306-0.020 0.612-0.058 0.914l-4.742 0.677c-0.004-2.199-1.793-3.987-3.992-3.992zM16.994 7.337c0.461-0.091 0.933-0.137 1.406-0.137 1.697 0 3.259 0.591 4.492 1.577l-12.463 12.463c-1.449-1.209-3.291-1.96-5.303-2.034l11.869-11.869zM11.559 22.372l12.463-12.463c0.986 1.232 1.577 2.794 1.577 4.492 0 0.474-0.046 0.946-0.137 1.406l-11.869 11.869c-0.073-2.012-0.825-3.854-2.034-5.303zM2.978 27.21c0.074-0.007 0.148-0.011 0.222-0.011 1.323 0 2.4 1.077 2.4 2.4 0 0.074-0.004 0.148-0.011 0.222l-3.047 0.435 0.435-3.047z"></path>
</symbol>
<symbol id="icon-presentation" viewBox="0 0 32 32">
<title>presentation</title>
<path d="M29.6 0h-28.8c-0.442 0-0.8 0.358-0.8 0.8v24c0 0.442 0.358 0.8 0.8 0.8h12.469l-5.034 5.034c-0.312 0.312-0.312 0.819 0 1.131 0.156 0.156 0.361 0.234 0.566 0.234s0.409-0.078 0.566-0.234l5.034-5.034v4.469c0 0.442 0.358 0.8 0.8 0.8s0.8-0.358 0.8-0.8v-4.469l5.034 5.034c0.156 0.156 0.361 0.234 0.566 0.234s0.409-0.078 0.566-0.234c0.312-0.312 0.312-0.819 0-1.131l-5.034-5.034h12.469c0.442 0 0.8-0.358 0.8-0.8v-24c0-0.442-0.358-0.8-0.8-0.8zM1.6 1.6h27.2v19.2h-27.2v-19.2zM28.8 24h-27.2v-1.6h27.2v1.6z"></path>
<path d="M20.459 10.545l-8-5.6c-0.244-0.171-0.564-0.192-0.828-0.054s-0.431 0.411-0.431 0.71v11.2c0 0.298 0.166 0.572 0.431 0.71 0.116 0.061 0.243 0.090 0.369 0.090 0.161 0 0.322-0.049 0.459-0.145l8-5.6c0.214-0.15 0.341-0.394 0.341-0.655s-0.127-0.506-0.341-0.655zM12.8 15.264v-8.127l5.805 4.063-5.805 4.064z"></path>
</symbol>
<symbol id="icon-users" viewBox="0 0 32 32">
<title>users</title>
<path d="M30.284 25.853c-0.571-0.609-1.265-1.142-2.073-1.595-0.484-0.966-1.436-2.238-3.294-3.253-0.761-0.416-1.619-0.76-2.571-1.033 1.941-1.1 3.255-3.186 3.255-5.572 0-2.591-1.547-4.827-3.766-5.833-0.475-1.053-1.221-1.954-2.176-2.62-0.325-0.227-0.668-0.421-1.024-0.582-0.475-1.052-1.221-1.952-2.176-2.618-1.076-0.751-2.341-1.147-3.657-1.147-3.529 0-6.4 2.871-6.4 6.4 0 1.316 0.397 2.581 1.147 3.657 0.666 0.955 1.566 1.701 2.618 2.176 0.161 0.356 0.355 0.699 0.582 1.024 0.3 0.431 0.649 0.818 1.037 1.158-2.397 0.075-4.475 0.421-6.19 1.030-1.614 0.574-2.919 1.384-3.878 2.407-1.697 1.81-1.716 3.669-1.716 3.747 0 1.323 1.077 2.4 2.4 2.4h0.909c-0.105 0.466-0.109 0.769-0.109 0.8 0 1.323 1.077 2.4 2.4 2.4h0.909c-0.105 0.466-0.109 0.769-0.109 0.8 0 1.323 1.077 2.4 2.4 2.4h20.8c1.323 0 2.4-1.077 2.4-2.4 0-0.078-0.020-1.937-1.716-3.747zM24 14.4c0 2.647-2.153 4.8-4.8 4.8s-4.8-2.153-4.8-4.8 2.153-4.8 4.8-4.8 4.8 2.153 4.8 4.8zM8 8c0-2.647 2.153-4.8 4.8-4.8 1.385 0 2.686 0.611 3.583 1.612-0.127-0.008-0.255-0.012-0.383-0.012-3.529 0-6.4 2.871-6.4 6.4 0 0.128 0.005 0.256 0.012 0.383-1.001-0.897-1.612-2.198-1.612-3.583zM11.2 11.2c0-2.647 2.153-4.8 4.8-4.8 1.385 0 2.685 0.611 3.583 1.612-0.127-0.008-0.254-0.012-0.383-0.012-3.529 0-6.4 2.871-6.4 6.4 0 0.129 0.004 0.256 0.012 0.383-1.001-0.897-1.612-2.198-1.612-3.583zM2.4 24c-0.44 0-0.797-0.356-0.8-0.795 0.002-0.087 0.059-1.407 1.368-2.746 1.275-1.304 4.016-2.859 9.832-2.859 0.293 0 0.582 0.004 0.866 0.012 0.352 0.604 0.8 1.146 1.323 1.603-2.399 0.075-4.479 0.42-6.195 1.030-1.614 0.574-2.919 1.384-3.878 2.407-0.427 0.456-0.748 0.914-0.989 1.347h-1.527zM5.6 27.2c-0.439 0-0.797-0.356-0.8-0.795 0.002-0.089 0.060-1.408 1.368-2.745 1.275-1.304 4.015-2.859 9.832-2.859 4.856 0 7.605 1.068 9.16 2.267-1.707-0.443-3.705-0.667-5.96-0.667-2.829 0-5.253 0.352-7.206 1.046-1.614 0.574-2.919 1.384-3.878 2.407-0.427 0.456-0.748 0.914-0.989 1.347h-1.527zM29.6 30.4h-20.8c-0.44 0-0.797-0.356-0.8-0.795 0.002-0.088 0.059-1.407 1.368-2.746 1.275-1.304 4.015-2.859 9.832-2.859s8.558 1.555 9.832 2.859c1.308 1.339 1.365 2.658 1.368 2.746-0.003 0.439-0.36 0.795-0.8 0.795z"></path>
</symbol>
<symbol id="icon-quote-open" viewBox="0 0 32 32">
<title>quote-open</title>
<path d="M7.2 12.8c-1.478 0-2.854 0.448-3.998 1.215 2.076-3.592 5.959-6.015 10.398-6.015 0.442 0 0.8-0.358 0.8-0.8s-0.358-0.8-0.8-0.8c-3.633 0-7.048 1.415-9.617 3.983s-3.983 5.984-3.983 9.617c0 3.97 3.23 7.2 7.2 7.2s7.2-3.23 7.2-7.2-3.23-7.2-7.2-7.2zM7.2 25.6c-3.088 0-5.6-2.512-5.6-5.6 0-0.048 0.001-0.096 0.002-0.144 0.077-3.021 2.559-5.456 5.598-5.456 3.088 0 5.6 2.512 5.6 5.6s-2.512 5.6-5.6 5.6z"></path>
<path d="M24.8 12.8c-1.478 0-2.854 0.448-3.998 1.215 2.076-3.592 5.959-6.015 10.398-6.015 0.442 0 0.8-0.358 0.8-0.8s-0.358-0.8-0.8-0.8c-3.633 0-7.048 1.415-9.617 3.983s-3.983 5.984-3.983 9.617c0 3.97 3.23 7.2 7.2 7.2s7.2-3.23 7.2-7.2-3.23-7.2-7.2-7.2zM24.8 25.6c-3.088 0-5.6-2.512-5.6-5.6 0-0.048 0.001-0.096 0.002-0.144 0.077-3.021 2.559-5.456 5.598-5.456 3.088 0 5.6 2.512 5.6 5.6s-2.512 5.6-5.6 5.6z"></path>
</symbol>
<symbol id="icon-quote-close" viewBox="0 0 32 32">
<title>quote-close</title>
<path d="M7.2 20.8c1.478 0 2.854-0.448 3.998-1.215-2.076 3.592-5.959 6.015-10.398 6.015-0.442 0-0.8 0.358-0.8 0.8s0.358 0.8 0.8 0.8c3.633 0 7.048-1.415 9.617-3.983s3.983-5.984 3.983-9.617c0-3.97-3.23-7.2-7.2-7.2s-7.2 3.23-7.2 7.2 3.23 7.2 7.2 7.2zM7.2 8c3.088 0 5.6 2.512 5.6 5.6 0 0.048-0.001 0.096-0.002 0.144-0.077 3.021-2.559 5.456-5.598 5.456-3.088 0-5.6-2.512-5.6-5.6s2.512-5.6 5.6-5.6z"></path>
<path d="M18.4 25.6c-0.442 0-0.8 0.358-0.8 0.8s0.358 0.8 0.8 0.8c3.633 0 7.048-1.415 9.617-3.983s3.983-5.984 3.983-9.617c0-3.97-3.23-7.2-7.2-7.2s-7.2 3.23-7.2 7.2 3.23 7.2 7.2 7.2c1.478 0 2.854-0.448 3.998-1.215-2.076 3.592-5.959 6.015-10.398 6.015zM24.8 19.2c-3.088 0-5.6-2.512-5.6-5.6s2.512-5.6 5.6-5.6 5.6 2.512 5.6 5.6c0 0.048-0.001 0.096-0.002 0.144-0.077 3.021-2.559 5.456-5.598 5.456z"></path>
</symbol>
<symbol id="icon-wall" viewBox="0 0 32 32">
<title>wall</title>
<path d="M29.6 11.2c0.442 0 0.8-0.358 0.8-0.8s-0.358-0.8-0.8-0.8h-4v-4.8h4c0.442 0 0.8-0.358 0.8-0.8s-0.358-0.8-0.8-0.8h-28.8c-0.442 0-0.8 0.358-0.8 0.8s0.358 0.8 0.8 0.8h8.8v4.8h-8.8c-0.442 0-0.8 0.358-0.8 0.8s0.358 0.8 0.8 0.8h4v4.8h-4c-0.442 0-0.8 0.358-0.8 0.8s0.358 0.8 0.8 0.8h8.8v4.8h-8.8c-0.442 0-0.8 0.358-0.8 0.8s0.358 0.8 0.8 0.8h4v4.8h-4c-0.442 0-0.8 0.358-0.8 0.8s0.358 0.8 0.8 0.8h28.8c0.442 0 0.8-0.358 0.8-0.8s-0.358-0.8-0.8-0.8h-8.8v-4.8h8.8c0.442 0 0.8-0.358 0.8-0.8s-0.358-0.8-0.8-0.8h-4v-4.8h4c0.442 0 0.8-0.358 0.8-0.8s-0.358-0.8-0.8-0.8h-8.8v-4.8h8.8zM11.2 4.8h12.8v4.8h-12.8v-4.8zM19.2 28.8h-12.8v-4.8h12.8v4.8zM24 22.4h-12.8v-4.8h12.8v4.8zM19.2 16h-12.8v-4.8h12.8v4.8z"></path>
</symbol>
<symbol id="icon-mic" viewBox="0 0 32 32">
<title>mic</title>
<path d="M15.2 22.4c-3.088 0-5.6-2.512-5.6-5.6v-9.6c0-3.088 2.512-5.6 5.6-5.6s5.6 2.512 5.6 5.6v9.6c0 3.088-2.512 5.6-5.6 5.6zM15.2 3.2c-2.206 0-4 1.794-4 4v9.6c0 2.206 1.794 4 4 4s4-1.794 4-4v-9.6c0-2.206-1.794-4-4-4z"></path>
<path d="M25.6 16.8c0-0.442-0.358-0.8-0.8-0.8s-0.8 0.358-0.8 0.8c0 4.852-3.948 8.8-8.8 8.8s-8.8-3.948-8.8-8.8c0-0.442-0.358-0.8-0.8-0.8s-0.8 0.358-0.8 0.8c0 5.465 4.238 9.96 9.6 10.37v3.23h-2.4c-0.442 0-0.8 0.358-0.8 0.8s0.358 0.8 0.8 0.8h6.4c0.442 0 0.8-0.358 0.8-0.8s-0.358-0.8-0.8-0.8h-2.4v-3.23c5.362-0.41 9.6-4.904 9.6-10.37z"></path>
</symbol>
<symbol id="icon-play-circle" viewBox="0 0 32 32">
<title>play-circle</title>
<path d="M15.2 32c-4.060 0-7.877-1.581-10.748-4.452s-4.452-6.688-4.452-10.748c0-4.060 1.581-7.877 4.452-10.748s6.688-4.452 10.748-4.452c4.060 0 7.877 1.581 10.748 4.452s4.452 6.688 4.452 10.748-1.581 7.877-4.452 10.748c-2.871 2.871-6.688 4.452-10.748 4.452zM15.2 3.2c-7.499 0-13.6 6.101-13.6 13.6s6.101 13.6 13.6 13.6c7.499 0 13.6-6.101 13.6-13.6s-6.101-13.6-13.6-13.6z"></path>
<path d="M10.4 25.6c-0.133 0-0.267-0.033-0.388-0.1-0.254-0.141-0.412-0.409-0.412-0.7v-16c0-0.291 0.158-0.559 0.412-0.7s0.565-0.133 0.812 0.021l12.8 8c0.234 0.146 0.376 0.403 0.376 0.678s-0.142 0.532-0.376 0.678l-12.8 8c-0.129 0.081-0.277 0.122-0.424 0.122zM11.2 10.243v13.113l10.491-6.557-10.491-6.557z"></path>
</symbol>
</defs>
</svg>
